<svg width="180" height="32" viewBox="0 0 180 32" fill="none" xmlns="http://www.w3.org/2000/svg">
<path d="M19.4111 2C26.9156 2 32.9998 8.08347 33 15.5879L32.9951 15.9395C32.8087 23.2816 26.7982 29.1768 19.4111 29.1768L19.0605 29.1719C15.5353 29.0825 12.3442 27.6496 9.97852 25.3672H3C1.89545 25.3672 1.00002 24.4717 1 23.3672V13.0879C1.00023 11.9835 1.89557 11.0879 3 11.0879H6.58691C8.44397 5.79513 13.484 2.00024 19.4111 2ZM8.13574 13.9746C7.39323 13.9746 6.72444 14.1386 6.12988 14.4668C5.53539 14.795 5.06264 15.2751 4.71289 15.9072C4.3659 16.5394 4.19246 17.3106 4.19238 18.2197C4.19238 19.1262 4.366 19.8961 4.71289 20.5283C5.0626 21.1578 5.53541 21.6378 6.12988 21.9688C6.72449 22.2997 7.39316 22.4658 8.13574 22.4658C8.87558 22.4658 9.54313 22.3019 10.1377 21.9736C10.7349 21.6454 11.2079 21.1644 11.5576 20.5322C11.9073 19.9 12.083 19.129 12.083 18.2197C12.0829 17.3106 11.9073 16.5394 11.5576 15.9072C11.2079 15.2754 10.7346 14.7949 10.1377 14.4668C9.54317 14.1386 8.8755 13.9746 8.13574 13.9746ZM8.13574 15.7256C8.53374 15.7256 8.87384 15.8218 9.15625 16.0127C9.44129 16.2036 9.65989 16.4845 9.81055 16.8555C9.96385 17.2266 10.04 17.6819 10.04 18.2197C10.04 18.7576 9.96379 19.2128 9.81055 19.584C9.65991 19.9552 9.44135 20.2367 9.15625 20.4277C8.87386 20.6186 8.53369 20.7138 8.13574 20.7139C7.74023 20.7139 7.39945 20.6188 7.11426 20.4277C6.82922 20.2367 6.61034 19.9551 6.45703 19.584C6.30646 19.2128 6.23047 18.7577 6.23047 18.2197C6.23052 17.6819 6.30642 17.2266 6.45703 16.8555C6.61031 16.4847 6.82944 16.2036 7.11426 16.0127C7.39941 15.8218 7.74033 15.7256 8.13574 15.7256ZM13.2793 11.0879C14.3837 11.0879 15.2791 11.9835 15.2793 13.0879V23.3672C15.2793 23.8281 15.1214 24.2516 14.8594 24.5898C16.2272 25.283 17.7729 25.6767 19.4111 25.6768C24.9826 25.6768 29.4998 21.1593 29.5 15.5879C29.4998 10.0165 24.9826 5.5 19.4111 5.5C15.4572 5.50022 12.0368 7.77568 10.3828 11.0879H13.2793Z" fill="white"/>
<path d="M44.108 24V22.1747L51.3665 11.9901H44.0938V9.45455H55.2301V11.2798L47.9645 21.4645H55.2443V24H44.108ZM60.6793 9.45455V24H57.604V9.45455H60.6793ZM63.0533 24V22.1747L70.3118 11.9901H63.0391V9.45455H74.1754V11.2798L66.9098 21.4645H74.1896V24H63.0533ZM79.6246 9.45455V24H76.5494V9.45455H79.6246ZM81.3026 9.45455H84.7472L88.0639 15.7188H88.206L91.5227 9.45455H94.9673L89.6619 18.858V24H86.608V18.858L81.3026 9.45455ZM99.7223 9.45455V24H96.647V9.45455H99.7223ZM120.248 16.7273C120.248 18.3134 119.947 19.6629 119.346 20.7756C118.749 21.8883 117.935 22.7382 116.903 23.3253C115.875 23.9077 114.72 24.1989 113.437 24.1989C112.144 24.1989 110.984 23.9053 109.957 23.3182C108.929 22.7311 108.117 21.8812 107.521 20.7685C106.924 19.6558 106.626 18.3087 106.626 16.7273C106.626 15.1411 106.924 13.7917 107.521 12.679C108.117 11.5663 108.929 10.7187 109.957 10.1364C110.984 9.54924 112.144 9.25568 113.437 9.25568C114.72 9.25568 115.875 9.54924 116.903 10.1364C117.935 10.7187 118.749 11.5663 119.346 12.679C119.947 13.7917 120.248 15.1411 120.248 16.7273ZM117.13 16.7273C117.13 15.6998 116.976 14.8333 116.668 14.1278C116.365 13.4223 115.937 12.8873 115.383 12.5227C114.829 12.1581 114.18 11.9759 113.437 11.9759C112.693 11.9759 112.045 12.1581 111.491 12.5227C110.937 12.8873 110.506 13.4223 110.198 14.1278C109.895 14.8333 109.744 15.6998 109.744 16.7273C109.744 17.7547 109.895 18.6212 110.198 19.3267C110.506 20.0322 110.937 20.5672 111.491 20.9318C112.045 21.2964 112.693 21.4787 113.437 21.4787C114.18 21.4787 114.829 21.2964 115.383 20.9318C115.937 20.5672 116.365 20.0322 116.668 19.3267C116.976 18.6212 117.13 17.7547 117.13 16.7273ZM122.526 24V9.45455H132.157V11.9901H125.601V15.456H131.517V17.9915H125.601V24H122.526ZM134.225 24V9.45455H143.856V11.9901H137.3V15.456H143.217V17.9915H137.3V24H134.225ZM149 9.45455V24H145.924V9.45455H149ZM164.364 14.5469H161.253C161.196 14.1444 161.08 13.7869 160.905 13.4744C160.73 13.1572 160.505 12.8873 160.23 12.6648C159.955 12.4422 159.638 12.2718 159.278 12.1534C158.923 12.035 158.537 11.9759 158.121 11.9759C157.368 11.9759 156.712 12.1629 156.153 12.5369C155.595 12.9062 155.161 13.446 154.854 14.1562C154.546 14.8617 154.392 15.7187 154.392 16.7273C154.392 17.7642 154.546 18.6354 154.854 19.3409C155.166 20.0464 155.602 20.5791 156.161 20.9389C156.719 21.2988 157.366 21.4787 158.099 21.4787C158.511 21.4787 158.893 21.4242 159.243 21.3153C159.598 21.2064 159.913 21.0478 160.188 20.8395C160.462 20.6264 160.689 20.3684 160.869 20.0653C161.054 19.7623 161.182 19.4167 161.253 19.0284L164.364 19.0426C164.283 19.7102 164.082 20.3542 163.76 20.9744C163.443 21.59 163.014 22.1416 162.474 22.6293C161.939 23.1122 161.3 23.4957 160.557 23.7798C159.818 24.0592 158.982 24.1989 158.05 24.1989C156.752 24.1989 155.592 23.9053 154.57 23.3182C153.552 22.7311 152.747 21.8812 152.155 20.7685C151.568 19.6558 151.274 18.3087 151.274 16.7273C151.274 15.1411 151.572 13.7917 152.169 12.679C152.766 11.5663 153.575 10.7187 154.598 10.1364C155.621 9.54924 156.771 9.25568 158.05 9.25568C158.893 9.25568 159.674 9.37405 160.393 9.6108C161.118 9.84754 161.759 10.1932 162.318 10.6477C162.877 11.0975 163.331 11.6491 163.682 12.3026C164.037 12.956 164.264 13.7041 164.364 14.5469ZM166.569 24V9.45455H176.37V11.9901H169.644V15.456H175.866V17.9915H169.644V21.4645H176.398V24H166.569Z" fill="white"/>
</svg>
